<svg width="36" height="33" viewBox="0 0 36 33" fill="none" xmlns="http://www.w3.org/2000/svg">
<path d="M36 3.72271V29.08C36 30.989 34.2723 32.5378 32.1429 32.5378H25.2884V19.7727H30.158L30.8571 14.903H25.2884V11.7909C25.2884 10.379 25.7223 9.4209 27.9804 9.4209H30.8571V5.06982C30.3589 5.01219 28.6554 4.87531 26.6625 4.87531C22.5161 4.87531 19.6714 7.14451 19.6714 11.3155V14.9102H14.7857V19.7799H19.6795V32.5378H3.85714C1.72768 32.5378 0 30.989 0 29.08V3.72271C0 1.81371 1.72768 0.264893 3.85714 0.264893H32.1429C34.2723 0.264893 36 1.81371 36 3.72271Z" fill="#FFFCFB"/>
</svg>
