<svg width="36" height="33" viewBox="0 0 36 33" fill="none" xmlns="http://www.w3.org/2000/svg">
<path d="M18.004 8.12699C12.8962 8.12699 8.77613 11.8213 8.77613 16.4014C8.77613 20.9814 12.8962 24.6757 18.004 24.6757C23.1119 24.6757 27.2319 20.9814 27.2319 16.4014C27.2319 11.8213 23.1119 8.12699 18.004 8.12699ZM18.004 21.7808C14.7032 21.7808 12.0047 19.3683 12.0047 16.4014C12.0047 13.4344 14.6951 11.0219 18.004 11.0219C21.3129 11.0219 24.0033 13.4344 24.0033 16.4014C24.0033 19.3683 21.3049 21.7808 18.004 21.7808ZM29.7617 7.78853C29.7617 8.86153 28.798 9.71849 27.6094 9.71849C26.4127 9.71849 25.457 8.85433 25.457 7.78853C25.457 6.72272 26.4207 5.85856 27.6094 5.85856C28.798 5.85856 29.7617 6.72272 29.7617 7.78853ZM35.8735 9.7473C35.737 7.16201 35.0784 4.87197 32.9662 2.98521C30.862 1.09845 28.3081 0.507939 25.4249 0.378314C22.4533 0.227085 13.5467 0.227085 10.5751 0.378314C7.69994 0.500738 5.14601 1.09125 3.0338 2.97801C0.921584 4.86477 0.271054 7.15481 0.126492 9.7401C-0.042164 12.4046 -0.042164 20.3909 0.126492 23.0554C0.263023 25.6407 0.921584 27.9308 3.0338 29.8175C5.14601 31.7043 7.69191 32.2948 10.5751 32.4244C13.5467 32.5756 22.4533 32.5756 25.4249 32.4244C28.3081 32.302 30.862 31.7115 32.9662 29.8175C35.0704 27.9308 35.7289 25.6407 35.8735 23.0554C36.0422 20.3909 36.0422 12.4118 35.8735 9.7473ZM32.0346 25.9144C31.4081 27.3258 30.1954 28.4133 28.6133 28.9822C26.2441 29.8247 20.6222 29.6303 18.004 29.6303C15.3858 29.6303 9.75594 29.8175 7.39476 28.9822C5.82064 28.4205 4.60792 27.333 3.97345 25.9144C3.0338 23.79 3.25064 18.749 3.25064 16.4014C3.25064 14.0537 3.04183 9.00556 3.97345 6.88835C4.59989 5.47689 5.8126 4.38948 7.39476 3.82057C9.76397 2.97801 15.3858 3.17245 18.004 3.17245C20.6222 3.17245 26.2521 2.98521 28.6133 3.82057C30.1874 4.38228 31.4001 5.46968 32.0346 6.88835C32.9742 9.01276 32.7574 14.0537 32.7574 16.4014C32.7574 18.749 32.9742 23.7972 32.0346 25.9144Z" fill="#FFFCFB"/>
</svg>
