<svg width="36" height="33" viewBox="0 0 36 33" fill="none" xmlns="http://www.w3.org/2000/svg">
<path d="M32.1429 0.264893H3.85714C1.72768 0.264893 0 1.81371 0 3.72271V29.08C0 30.989 1.72768 32.5378 3.85714 32.5378H32.1429C34.2723 32.5378 36 30.989 36 29.08V3.72271C36 1.81371 34.2723 0.264893 32.1429 0.264893ZM28.2134 11.7045C28.2295 11.9062 28.2295 12.1151 28.2295 12.3168C28.2295 18.5625 22.9259 25.7591 13.2348 25.7591C10.2455 25.7591 7.47321 24.9811 5.14286 23.6412C5.56875 23.6844 5.97857 23.6988 6.4125 23.6988C8.87946 23.6988 11.1455 22.9496 12.9536 21.6817C10.6393 21.6385 8.69464 20.277 8.02768 18.404C8.83929 18.5121 9.57054 18.5121 10.4062 18.3176C7.99554 17.8781 6.1875 15.9763 6.1875 13.6783V13.6207C6.88661 13.9737 7.70625 14.1898 8.56607 14.2186C7.8432 13.7876 7.25061 13.2028 6.84118 12.5165C6.43175 11.8302 6.21822 11.0637 6.21964 10.2854C6.21964 9.40649 6.47679 8.59967 6.93482 7.9009C9.53036 10.768 13.4277 12.641 17.7991 12.8427C17.0518 9.63701 19.7277 7.03645 22.942 7.03645C24.4607 7.03645 25.8268 7.60555 26.7911 8.52763C27.9804 8.32593 29.1214 7.92972 30.1339 7.38943C29.7402 8.48441 28.9125 9.40649 27.8196 9.99C28.8804 9.88915 29.9089 9.62261 30.8571 9.25521C30.142 10.1989 29.242 11.0345 28.2134 11.7045Z" fill="#FFFCFB"/>
</svg>
