<svg width="30" height="22" viewBox="0 0 30 22" fill="none" xmlns="http://www.w3.org/2000/svg">
<path d="M29.8415 2.54179L27.3895 0.158038C27.292 0.0526792 27.1388 0 26.9994 0C26.8462 0 26.7069 0.0526792 26.6094 0.158038L9.6128 16.3438L3.42717 10.4964C3.31572 10.3911 3.1764 10.3384 3.03709 10.3384C2.89777 10.3384 2.75845 10.3911 2.647 10.4964L0.167179 12.8407C-0.0557264 13.0514 -0.0557264 13.3806 0.167179 13.5913L7.96887 20.9665C8.47041 21.4406 9.0834 21.7172 9.59887 21.7172C10.3372 21.7172 10.9781 21.2035 11.2149 20.9928H11.2289L29.8554 3.29247C30.0505 3.06859 30.0505 2.73934 29.8415 2.54179Z" fill="#DF6C2D"/>
</svg>
